<svg xmlns="http://www.w3.org/2000/svg" xmlns:xlink="http://www.w3.org/1999/xlink" width="200" zoomAndPan="magnify" viewBox="0 0 300 112.499997" height="100" preserveAspectRatio="xMidYMid meet" version="1.0"><defs><g/></defs><g fill="#ff3131" fill-opacity="1"><g transform="translate(30.238451, 66.707981)"><g><path d="M 33.6875 0 L 29.90625 -9.875 L 13.078125 -9.875 L 9.484375 0 L 0.125 0 L 17.09375 -43.59375 L 25.8125 -43.59375 L 43.296875 0 Z M 19.359375 -27.078125 L 15.765625 -17.25 L 27.078125 -17.25 L 23.421875 -27.078125 C 22.953125 -28.347656 22.53125 -29.644531 22.15625 -30.96875 C 21.789062 -32.300781 21.550781 -33.382812 21.4375 -34.21875 L 21.203125 -34.21875 C 20.835938 -31.84375 20.222656 -29.460938 19.359375 -27.078125 Z M 19.359375 -27.078125 "/></g></g></g><g fill="#0f9fdb" fill-opacity="1"><g transform="translate(68.896279, 66.707981)"><g><path d="M 22.859375 -36.21875 L 22.859375 0 L 14.09375 0 L 14.09375 -36.21875 L 1.484375 -36.21875 L 1.484375 -43.59375 L 35.46875 -43.59375 L 35.46875 -36.21875 Z M 22.859375 -36.21875 "/></g></g></g><g fill="#0f9fdb" fill-opacity="1"><g transform="translate(107.484997, 66.707981)"><g><path d="M 22.859375 -36.21875 L 22.859375 0 L 14.09375 0 L 14.09375 -36.21875 L 1.484375 -36.21875 L 1.484375 -43.59375 L 35.46875 -43.59375 L 35.46875 -36.21875 Z M 22.859375 -36.21875 "/></g></g></g><g fill="#0f9fdb" fill-opacity="1"><g transform="translate(144.438542, 66.707981)"><g><path d="M 13.34375 -36.21875 L 13.34375 -26.25 L 31.671875 -26.25 L 31.671875 -18.875 L 13.34375 -18.875 L 13.34375 -7.375 L 34.34375 -7.375 L 34.34375 0 L 4.578125 0 L 4.578125 -43.59375 L 33.296875 -43.59375 L 33.296875 -36.21875 Z M 13.34375 -36.21875 "/></g></g></g><g fill="#0f9fdb" fill-opacity="1"><g transform="translate(181.689379, 66.707981)"><g><path d="M 22.890625 -36.78125 C 20.492188 -36.78125 18.453125 -36.144531 16.765625 -34.875 C 15.078125 -33.601562 13.804688 -31.851562 12.953125 -29.625 C 12.109375 -27.394531 11.6875 -24.84375 11.6875 -21.96875 C 11.6875 -18.894531 12.117188 -16.21875 12.984375 -13.9375 C 13.859375 -11.664062 15.128906 -9.910156 16.796875 -8.671875 C 18.460938 -7.429688 20.457031 -6.8125 22.78125 -6.8125 C 24.40625 -6.8125 25.910156 -7.164062 27.296875 -7.875 C 28.679688 -8.59375 29.863281 -9.613281 30.84375 -10.9375 C 31.820312 -12.269531 32.539062 -13.835938 33 -15.640625 L 41.71875 -13.59375 C 41.039062 -10.71875 39.863281 -8.203125 38.1875 -6.046875 C 36.507812 -3.898438 34.382812 -2.226562 31.8125 -1.03125 C 29.238281 0.15625 26.304688 0.75 23.015625 0.75 C 18.734375 0.75 15.066406 -0.160156 12.015625 -1.984375 C 8.960938 -3.816406 6.628906 -6.453125 5.015625 -9.890625 C 3.410156 -13.328125 2.609375 -17.414062 2.609375 -22.15625 C 2.609375 -26.6875 3.4375 -30.625 5.09375 -33.96875 C 6.75 -37.3125 9.113281 -39.875 12.1875 -41.65625 C 15.257812 -43.4375 18.867188 -44.328125 23.015625 -44.328125 C 27.765625 -44.328125 31.675781 -43.25 34.75 -41.09375 C 37.820312 -38.945312 39.972656 -35.765625 41.203125 -31.546875 L 32.53125 -29.46875 C 31.082031 -34.34375 27.867188 -36.78125 22.890625 -36.78125 Z M 22.890625 -36.78125 "/></g></g></g><g fill="#0f9fdb" fill-opacity="1"><g transform="translate(225.837418, 66.707981)"><g><path d="M 30.5625 -26.78125 L 30.5625 -43.59375 L 39.328125 -43.59375 L 39.328125 0 L 30.5625 0 L 30.5625 -19.421875 L 13.34375 -19.421875 L 13.34375 0 L 4.578125 0 L 4.578125 -43.59375 L 13.34375 -43.59375 L 13.34375 -26.78125 Z M 30.5625 -26.78125 "/></g></g></g><g fill="#ffffff" fill-opacity="1"><g transform="translate(28.633423, 89.831252)"><g><path d="M 10.046875 -10.296875 C 9.828125 -11.367188 9.4375 -12.132812 8.875 -12.59375 C 8.3125 -13.0625 7.546875 -13.296875 6.578125 -13.296875 C 5.941406 -13.296875 5.378906 -13.203125 4.890625 -13.015625 C 4.398438 -12.828125 4.015625 -12.5625 3.734375 -12.21875 C 3.460938 -11.875 3.328125 -11.472656 3.328125 -11.015625 C 3.328125 -10.546875 3.453125 -10.171875 3.703125 -9.890625 C 3.953125 -9.609375 4.332031 -9.375 4.84375 -9.1875 C 5.351562 -9 6.085938 -8.800781 7.046875 -8.59375 C 8.359375 -8.3125 9.398438 -7.984375 10.171875 -7.609375 C 10.953125 -7.234375 11.515625 -6.769531 11.859375 -6.21875 C 12.210938 -5.664062 12.390625 -4.976562 12.390625 -4.15625 C 12.390625 -3.320312 12.160156 -2.570312 11.703125 -1.90625 C 11.242188 -1.238281 10.609375 -0.710938 9.796875 -0.328125 C 8.992188 0.0546875 8.082031 0.25 7.0625 0.25 C 5.300781 0.25 3.894531 -0.160156 2.84375 -0.984375 C 1.789062 -1.804688 1.148438 -3.003906 0.921875 -4.578125 L 2.84375 -5.03125 C 2.976562 -3.832031 3.394531 -2.929688 4.09375 -2.328125 C 4.789062 -1.722656 5.753906 -1.421875 6.984375 -1.421875 C 7.628906 -1.421875 8.222656 -1.519531 8.765625 -1.71875 C 9.304688 -1.925781 9.734375 -2.21875 10.046875 -2.59375 C 10.367188 -2.96875 10.53125 -3.382812 10.53125 -3.84375 C 10.53125 -4.457031 10.378906 -4.9375 10.078125 -5.28125 C 9.773438 -5.625 9.328125 -5.898438 8.734375 -6.109375 C 8.234375 -6.285156 7.515625 -6.484375 6.578125 -6.703125 C 6.015625 -6.828125 5.617188 -6.925781 5.390625 -7 C 4.367188 -7.269531 3.570312 -7.597656 3 -7.984375 C 2.425781 -8.367188 2.023438 -8.804688 1.796875 -9.296875 C 1.578125 -9.796875 1.46875 -10.382812 1.46875 -11.0625 C 1.46875 -11.789062 1.6875 -12.453125 2.125 -13.046875 C 2.5625 -13.648438 3.164062 -14.117188 3.9375 -14.453125 C 4.707031 -14.785156 5.570312 -14.953125 6.53125 -14.953125 C 7.539062 -14.953125 8.429688 -14.785156 9.203125 -14.453125 C 9.984375 -14.117188 10.609375 -13.632812 11.078125 -13 C 11.546875 -12.363281 11.835938 -11.601562 11.953125 -10.71875 L 10.078125 -10.296875 Z M 10.046875 -10.296875 "/></g></g></g><g fill="#ffffff" fill-opacity="1"><g transform="translate(43.906951, 89.831252)"><g><path d="M 9.96875 0 L 8.078125 0 C 7.972656 -0.226562 7.898438 -0.410156 7.859375 -0.546875 C 7.816406 -0.691406 7.765625 -0.945312 7.703125 -1.3125 C 7.191406 -0.757812 6.644531 -0.359375 6.0625 -0.109375 C 5.488281 0.128906 4.832031 0.25 4.09375 0.25 C 3.425781 0.25 2.835938 0.125 2.328125 -0.125 C 1.816406 -0.382812 1.421875 -0.75 1.140625 -1.21875 C 0.859375 -1.6875 0.71875 -2.21875 0.71875 -2.8125 C 0.71875 -3.726562 1.015625 -4.457031 1.609375 -5 C 2.210938 -5.539062 3.195312 -5.914062 4.5625 -6.125 C 5.976562 -6.34375 6.984375 -6.546875 7.578125 -6.734375 L 7.578125 -7.015625 C 7.578125 -7.617188 7.5 -8.09375 7.34375 -8.4375 C 7.195312 -8.78125 6.953125 -9.023438 6.609375 -9.171875 C 6.273438 -9.328125 5.820312 -9.40625 5.25 -9.40625 C 4.519531 -9.40625 3.945312 -9.238281 3.53125 -8.90625 C 3.113281 -8.582031 2.835938 -8.070312 2.703125 -7.375 L 0.9375 -7.640625 C 1.15625 -8.722656 1.632812 -9.535156 2.375 -10.078125 C 3.125 -10.617188 4.113281 -10.890625 5.34375 -10.890625 C 6.289062 -10.890625 7.054688 -10.769531 7.640625 -10.53125 C 8.234375 -10.289062 8.671875 -9.898438 8.953125 -9.359375 C 9.242188 -8.828125 9.390625 -8.101562 9.390625 -7.1875 L 9.390625 -3.375 C 9.390625 -2.707031 9.40625 -2.191406 9.4375 -1.828125 C 9.46875 -1.472656 9.519531 -1.164062 9.59375 -0.90625 C 9.675781 -0.644531 9.800781 -0.34375 9.96875 0 Z M 4.640625 -4.609375 C 3.921875 -4.484375 3.394531 -4.273438 3.0625 -3.984375 C 2.726562 -3.691406 2.5625 -3.300781 2.5625 -2.8125 C 2.5625 -2.300781 2.726562 -1.898438 3.0625 -1.609375 C 3.394531 -1.316406 3.875 -1.171875 4.5 -1.171875 C 5.019531 -1.171875 5.5625 -1.335938 6.125 -1.671875 C 6.519531 -1.910156 6.816406 -2.164062 7.015625 -2.4375 C 7.222656 -2.707031 7.367188 -3.035156 7.453125 -3.421875 C 7.535156 -3.804688 7.578125 -4.3125 7.578125 -4.9375 L 7.578125 -5.3125 C 7.421875 -5.238281 7.054688 -5.132812 6.484375 -5 C 5.921875 -4.875 5.304688 -4.742188 4.640625 -4.609375 Z M 5.34375 -12.140625 L 3.859375 -12.140625 L 5.1875 -14.953125 L 7.5625 -14.953125 Z M 5.34375 -12.140625 "/></g></g></g><g fill="#ffffff" fill-opacity="1"><g transform="translate(56.473393, 89.831252)"><g><path d="M 8.265625 0 L 8.265625 -6.96875 C 8.265625 -7.738281 8.070312 -8.320312 7.6875 -8.71875 C 7.300781 -9.125 6.753906 -9.328125 6.046875 -9.328125 C 5.140625 -9.328125 4.4375 -9.054688 3.9375 -8.515625 C 3.445312 -7.972656 3.203125 -7.109375 3.203125 -5.921875 L 3.203125 0 L 1.390625 0 L 1.390625 -10.640625 L 3.078125 -10.640625 L 3.078125 -9.15625 C 3.429688 -9.695312 3.890625 -10.117188 4.453125 -10.421875 C 5.023438 -10.734375 5.65625 -10.890625 6.34375 -10.890625 C 7.570312 -10.890625 8.5 -10.570312 9.125 -9.9375 C 9.757812 -9.300781 10.078125 -8.390625 10.078125 -7.203125 L 10.078125 0 Z M 8.265625 0 "/></g></g></g><g fill="#ffffff" fill-opacity="1"><g transform="translate(69.721617, 89.831252)"><g><path d="M 8.546875 -10.640625 L 10.234375 -10.640625 L 10.234375 -0.90625 C 10.234375 0.832031 9.847656 2.132812 9.078125 3 C 8.304688 3.875 7.09375 4.3125 5.4375 4.3125 C 4.132812 4.3125 3.125 4.015625 2.40625 3.421875 C 1.6875 2.828125 1.289062 1.984375 1.21875 0.890625 L 2.953125 1.15625 C 3.046875 1.726562 3.289062 2.148438 3.6875 2.421875 C 4.09375 2.703125 4.664062 2.84375 5.40625 2.84375 C 6.4375 2.84375 7.195312 2.582031 7.6875 2.0625 C 8.175781 1.53125 8.421875 0.457031 8.421875 -1.15625 L 8.421875 -1.390625 C 7.648438 -0.460938 6.632812 0 5.375 0 C 4.457031 0 3.644531 -0.226562 2.9375 -0.6875 C 2.226562 -1.144531 1.679688 -1.78125 1.296875 -2.59375 C 0.910156 -3.414062 0.71875 -4.351562 0.71875 -5.40625 C 0.71875 -6.488281 0.894531 -7.441406 1.25 -8.265625 C 1.601562 -9.097656 2.117188 -9.742188 2.796875 -10.203125 C 3.484375 -10.660156 4.304688 -10.890625 5.265625 -10.890625 C 6.003906 -10.890625 6.628906 -10.757812 7.140625 -10.5 C 7.660156 -10.25 8.113281 -9.875 8.5 -9.375 L 8.546875 -9.375 Z M 5.390625 -9.40625 C 4.835938 -9.40625 4.347656 -9.253906 3.921875 -8.953125 C 3.492188 -8.648438 3.160156 -8.203125 2.921875 -7.609375 C 2.679688 -7.023438 2.5625 -6.328125 2.5625 -5.515625 C 2.5625 -4.671875 2.679688 -3.945312 2.921875 -3.34375 C 3.160156 -2.738281 3.503906 -2.273438 3.953125 -1.953125 C 4.398438 -1.628906 4.929688 -1.46875 5.546875 -1.46875 C 6.171875 -1.46875 6.707031 -1.628906 7.15625 -1.953125 C 7.613281 -2.273438 7.957031 -2.734375 8.1875 -3.328125 C 8.425781 -3.929688 8.546875 -4.644531 8.546875 -5.46875 C 8.546875 -6.269531 8.421875 -6.96875 8.171875 -7.5625 C 7.921875 -8.15625 7.554688 -8.609375 7.078125 -8.921875 C 6.609375 -9.242188 6.046875 -9.40625 5.390625 -9.40625 Z M 5.390625 -9.40625 "/></g></g></g><g fill="#ffffff" fill-opacity="1"><g transform="translate(83.17037, 89.831252)"><g/></g></g><g fill="#ffffff" fill-opacity="1"><g transform="translate(90.643484, 89.831252)"><g><path d="M 3.46875 -10.640625 L 5.484375 -10.640625 L 5.484375 -9.25 L 3.46875 -9.25 L 3.46875 -2.796875 C 3.46875 -2.398438 3.503906 -2.101562 3.578125 -1.90625 C 3.648438 -1.71875 3.753906 -1.59375 3.890625 -1.53125 C 4.035156 -1.46875 4.226562 -1.4375 4.46875 -1.4375 C 4.707031 -1.4375 5.046875 -1.476562 5.484375 -1.5625 L 5.734375 -0.0625 C 5.210938 0.0625 4.691406 0.125 4.171875 0.125 C 3.523438 0.125 3.023438 0.03125 2.671875 -0.15625 C 2.316406 -0.351562 2.054688 -0.640625 1.890625 -1.015625 C 1.742188 -1.378906 1.671875 -2.03125 1.671875 -2.96875 L 1.671875 -9.25 L 0.140625 -9.25 L 0.140625 -10.640625 L 1.671875 -10.640625 L 1.671875 -13.09375 L 3.46875 -14.390625 Z M 3.46875 -10.640625 "/></g></g></g><g fill="#ffffff" fill-opacity="1"><g transform="translate(98.447464, 89.831252)"><g><path d="M 9.96875 0 L 8.078125 0 C 7.972656 -0.226562 7.898438 -0.410156 7.859375 -0.546875 C 7.816406 -0.691406 7.765625 -0.945312 7.703125 -1.3125 C 7.191406 -0.757812 6.644531 -0.359375 6.0625 -0.109375 C 5.488281 0.128906 4.832031 0.25 4.09375 0.25 C 3.425781 0.25 2.835938 0.125 2.328125 -0.125 C 1.816406 -0.382812 1.421875 -0.75 1.140625 -1.21875 C 0.859375 -1.6875 0.71875 -2.21875 0.71875 -2.8125 C 0.71875 -3.726562 1.015625 -4.457031 1.609375 -5 C 2.210938 -5.539062 3.195312 -5.914062 4.5625 -6.125 C 5.976562 -6.34375 6.984375 -6.546875 7.578125 -6.734375 L 7.578125 -7.015625 C 7.578125 -7.617188 7.5 -8.09375 7.34375 -8.4375 C 7.195312 -8.78125 6.953125 -9.023438 6.609375 -9.171875 C 6.273438 -9.328125 5.820312 -9.40625 5.25 -9.40625 C 4.519531 -9.40625 3.945312 -9.238281 3.53125 -8.90625 C 3.113281 -8.582031 2.835938 -8.070312 2.703125 -7.375 L 0.9375 -7.640625 C 1.15625 -8.722656 1.632812 -9.535156 2.375 -10.078125 C 3.125 -10.617188 4.113281 -10.890625 5.34375 -10.890625 C 6.289062 -10.890625 7.054688 -10.769531 7.640625 -10.53125 C 8.234375 -10.289062 8.671875 -9.898438 8.953125 -9.359375 C 9.242188 -8.828125 9.390625 -8.101562 9.390625 -7.1875 L 9.390625 -3.375 C 9.390625 -2.707031 9.40625 -2.191406 9.4375 -1.828125 C 9.46875 -1.472656 9.519531 -1.164062 9.59375 -0.90625 C 9.675781 -0.644531 9.800781 -0.34375 9.96875 0 Z M 4.640625 -4.609375 C 3.921875 -4.484375 3.394531 -4.273438 3.0625 -3.984375 C 2.726562 -3.691406 2.5625 -3.300781 2.5625 -2.8125 C 2.5625 -2.300781 2.726562 -1.898438 3.0625 -1.609375 C 3.394531 -1.316406 3.875 -1.171875 4.5 -1.171875 C 5.019531 -1.171875 5.5625 -1.335938 6.125 -1.671875 C 6.519531 -1.910156 6.816406 -2.164062 7.015625 -2.4375 C 7.222656 -2.707031 7.367188 -3.035156 7.453125 -3.421875 C 7.535156 -3.804688 7.578125 -4.3125 7.578125 -4.9375 L 7.578125 -5.3125 C 7.421875 -5.238281 7.054688 -5.132812 6.484375 -5 C 5.921875 -4.875 5.304688 -4.742188 4.640625 -4.609375 Z M 6.34375 3.828125 L 4.375 3.828125 L 4.375 1.609375 L 6.34375 1.609375 Z M 6.34375 3.828125 "/></g></g></g><g fill="#ffffff" fill-opacity="1"><g transform="translate(111.013908, 89.831252)"><g><path d="M 0.71875 -5.3125 C 0.71875 -6.46875 0.925781 -7.460938 1.34375 -8.296875 C 1.757812 -9.140625 2.34375 -9.78125 3.09375 -10.21875 C 3.84375 -10.664062 4.710938 -10.890625 5.703125 -10.890625 C 6.703125 -10.890625 7.578125 -10.671875 8.328125 -10.234375 C 9.078125 -9.804688 9.660156 -9.175781 10.078125 -8.34375 C 10.492188 -7.519531 10.703125 -6.519531 10.703125 -5.34375 C 10.703125 -4.164062 10.488281 -3.15625 10.0625 -2.3125 C 9.644531 -1.476562 9.0625 -0.84375 8.3125 -0.40625 C 7.5625 0.03125 6.691406 0.25 5.703125 0.25 C 4.734375 0.25 3.875 0.0390625 3.125 -0.375 C 2.375 -0.800781 1.785156 -1.429688 1.359375 -2.265625 C 0.929688 -3.109375 0.71875 -4.125 0.71875 -5.3125 Z M 5.703125 -9.40625 C 5.097656 -9.40625 4.554688 -9.25 4.078125 -8.9375 C 3.609375 -8.625 3.238281 -8.160156 2.96875 -7.546875 C 2.695312 -6.929688 2.5625 -6.1875 2.5625 -5.3125 C 2.5625 -4.4375 2.695312 -3.691406 2.96875 -3.078125 C 3.238281 -2.472656 3.609375 -2.015625 4.078125 -1.703125 C 4.546875 -1.390625 5.085938 -1.234375 5.703125 -1.234375 C 6.335938 -1.234375 6.894531 -1.394531 7.375 -1.71875 C 7.851562 -2.039062 8.21875 -2.507812 8.46875 -3.125 C 8.726562 -3.738281 8.859375 -4.476562 8.859375 -5.34375 C 8.859375 -6.207031 8.722656 -6.941406 8.453125 -7.546875 C 8.191406 -8.160156 7.820312 -8.625 7.34375 -8.9375 C 6.863281 -9.25 6.316406 -9.40625 5.703125 -9.40625 Z M 5.703125 -9.40625 "/></g></g></g><g fill="#ffffff" fill-opacity="1"><g transform="translate(124.26213, 89.831252)"><g/></g></g><g fill="#ffffff" fill-opacity="1"><g transform="translate(131.735244, 89.831252)"><g><path d="M 10.953125 -6.921875 L 12.828125 -6.515625 C 12.492188 -5.285156 12.015625 -4.203125 11.390625 -3.265625 C 11.710938 -2.890625 12.101562 -2.492188 12.5625 -2.078125 C 13.019531 -1.671875 13.421875 -1.359375 13.765625 -1.140625 L 12.609375 0.34375 C 12.242188 0.125 11.867188 -0.144531 11.484375 -0.46875 C 11.109375 -0.800781 10.6875 -1.226562 10.21875 -1.75 C 9.582031 -1.082031 8.898438 -0.582031 8.171875 -0.25 C 7.453125 0.0820312 6.648438 0.25 5.765625 0.25 C 4.804688 0.25 3.957031 0.0546875 3.21875 -0.328125 C 2.476562 -0.710938 1.90625 -1.234375 1.5 -1.890625 C 1.09375 -2.554688 0.890625 -3.273438 0.890625 -4.046875 C 0.890625 -4.972656 1.195312 -5.796875 1.8125 -6.515625 C 2.425781 -7.242188 3.335938 -7.890625 4.546875 -8.453125 C 3.921875 -9.140625 3.472656 -9.722656 3.203125 -10.203125 C 2.941406 -10.679688 2.8125 -11.171875 2.8125 -11.671875 C 2.8125 -12.304688 2.972656 -12.875 3.296875 -13.375 C 3.628906 -13.875 4.082031 -14.257812 4.65625 -14.53125 C 5.238281 -14.8125 5.90625 -14.953125 6.65625 -14.953125 C 7.332031 -14.953125 7.945312 -14.816406 8.5 -14.546875 C 9.050781 -14.273438 9.476562 -13.898438 9.78125 -13.421875 C 10.09375 -12.941406 10.25 -12.40625 10.25 -11.8125 C 10.25 -11.113281 10 -10.453125 9.5 -9.828125 C 9.007812 -9.210938 8.257812 -8.65625 7.25 -8.15625 L 10.140625 -4.765625 C 10.296875 -5.085938 10.453125 -5.457031 10.609375 -5.875 C 10.773438 -6.300781 10.890625 -6.648438 10.953125 -6.921875 Z M 8.40625 -11.78125 C 8.40625 -12.101562 8.320312 -12.390625 8.15625 -12.640625 C 8 -12.898438 7.773438 -13.101562 7.484375 -13.25 C 7.203125 -13.394531 6.882812 -13.46875 6.53125 -13.46875 C 6.175781 -13.46875 5.851562 -13.398438 5.5625 -13.265625 C 5.28125 -13.140625 5.0625 -12.957031 4.90625 -12.71875 C 4.75 -12.488281 4.671875 -12.222656 4.671875 -11.921875 C 4.671875 -11.441406 4.90625 -10.925781 5.375 -10.375 L 6.265625 -9.328125 C 6.847656 -9.640625 7.289062 -9.925781 7.59375 -10.1875 C 7.90625 -10.445312 8.117188 -10.695312 8.234375 -10.9375 C 8.347656 -11.1875 8.40625 -11.46875 8.40625 -11.78125 Z M 2.84375 -4.046875 C 2.84375 -3.546875 2.972656 -3.085938 3.234375 -2.671875 C 3.492188 -2.265625 3.847656 -1.941406 4.296875 -1.703125 C 4.753906 -1.472656 5.253906 -1.359375 5.796875 -1.359375 C 6.359375 -1.359375 6.9375 -1.515625 7.53125 -1.828125 C 8.125 -2.140625 8.632812 -2.5625 9.0625 -3.09375 L 5.546875 -7.25 C 4.859375 -6.851562 4.316406 -6.484375 3.921875 -6.140625 C 3.535156 -5.804688 3.257812 -5.472656 3.09375 -5.140625 C 2.925781 -4.804688 2.84375 -4.441406 2.84375 -4.046875 Z M 2.84375 -4.046875 "/></g></g></g><g fill="#ffffff" fill-opacity="1"><g transform="translate(147.650451, 89.831252)"><g/></g></g><g fill="#ffffff" fill-opacity="1"><g transform="translate(155.123565, 89.831252)"><g><path d="M 11.734375 -12.96875 L 7.046875 -12.96875 L 7.046875 0 L 5.09375 0 L 5.09375 -12.96875 L 0.40625 -12.96875 L 0.40625 -14.703125 L 11.734375 -14.703125 Z M 11.734375 -12.96875 "/></g></g></g><g fill="#ffffff" fill-opacity="1"><g transform="translate(169.083656, 89.831252)"><g><path d="M 3.203125 -9.328125 C 3.523438 -9.804688 3.972656 -10.1875 4.546875 -10.46875 C 5.117188 -10.75 5.71875 -10.890625 6.34375 -10.890625 C 7.570312 -10.890625 8.5 -10.570312 9.125 -9.9375 C 9.757812 -9.300781 10.078125 -8.390625 10.078125 -7.203125 L 10.078125 0 L 8.265625 0 L 8.265625 -6.96875 C 8.265625 -7.738281 8.070312 -8.320312 7.6875 -8.71875 C 7.300781 -9.125 6.753906 -9.328125 6.046875 -9.328125 C 5.191406 -9.328125 4.503906 -9.066406 3.984375 -8.546875 C 3.460938 -8.023438 3.203125 -7.148438 3.203125 -5.921875 L 3.203125 0 L 1.390625 0 L 1.390625 -14.703125 L 3.203125 -14.703125 Z M 3.203125 -9.328125 "/></g></g></g><g fill="#ffffff" fill-opacity="1"><g transform="translate(182.331884, 89.831252)"><g><path d="M 3.203125 0 L 1.390625 0 L 1.390625 -10.640625 L 3.203125 -10.640625 Z M 2.40625 -12.140625 L 0.921875 -12.140625 L 2.25 -14.953125 L 4.625 -14.953125 Z M 2.40625 -12.140625 "/></g></g></g><g fill="#ffffff" fill-opacity="1"><g transform="translate(188.752243, 89.831252)"><g><path d="M 5.84375 -9.40625 C 4.800781 -9.40625 3.992188 -9.050781 3.421875 -8.34375 C 2.847656 -7.632812 2.5625 -6.632812 2.5625 -5.34375 C 2.5625 -4.539062 2.6875 -3.828125 2.9375 -3.203125 C 3.195312 -2.585938 3.566406 -2.101562 4.046875 -1.75 C 4.535156 -1.40625 5.101562 -1.234375 5.75 -1.234375 C 6.519531 -1.234375 7.148438 -1.46875 7.640625 -1.9375 C 8.140625 -2.414062 8.445312 -3.070312 8.5625 -3.90625 L 10.359375 -3.625 C 10.242188 -2.84375 9.96875 -2.15625 9.53125 -1.5625 C 9.09375 -0.976562 8.539062 -0.53125 7.875 -0.21875 C 7.207031 0.09375 6.472656 0.25 5.671875 0.25 C 4.691406 0.25 3.828125 0.0234375 3.078125 -0.421875 C 2.328125 -0.878906 1.742188 -1.523438 1.328125 -2.359375 C 0.921875 -3.191406 0.71875 -4.175781 0.71875 -5.3125 C 0.71875 -6.5 0.921875 -7.507812 1.328125 -8.34375 C 1.742188 -9.175781 2.328125 -9.804688 3.078125 -10.234375 C 3.835938 -10.671875 4.734375 -10.890625 5.765625 -10.890625 C 6.523438 -10.890625 7.210938 -10.753906 7.828125 -10.484375 C 8.453125 -10.222656 8.96875 -9.835938 9.375 -9.328125 C 9.78125 -8.828125 10.046875 -8.226562 10.171875 -7.53125 L 8.421875 -7.265625 C 8.253906 -7.941406 7.941406 -8.46875 7.484375 -8.84375 C 7.035156 -9.21875 6.488281 -9.40625 5.84375 -9.40625 Z M 5.84375 -9.40625 "/></g></g></g><g fill="#ffffff" fill-opacity="1"><g transform="translate(201.338739, 89.831252)"><g><path d="M 3.203125 -9.328125 C 3.523438 -9.804688 3.972656 -10.1875 4.546875 -10.46875 C 5.117188 -10.75 5.71875 -10.890625 6.34375 -10.890625 C 7.570312 -10.890625 8.5 -10.570312 9.125 -9.9375 C 9.757812 -9.300781 10.078125 -8.390625 10.078125 -7.203125 L 10.078125 0 L 8.265625 0 L 8.265625 -6.96875 C 8.265625 -7.738281 8.070312 -8.320312 7.6875 -8.71875 C 7.300781 -9.125 6.753906 -9.328125 6.046875 -9.328125 C 5.191406 -9.328125 4.503906 -9.066406 3.984375 -8.546875 C 3.460938 -8.023438 3.203125 -7.148438 3.203125 -5.921875 L 3.203125 0 L 1.390625 0 L 1.390625 -14.703125 L 3.203125 -14.703125 Z M 3.203125 -9.328125 "/></g></g></g><g fill="#ffffff" fill-opacity="1"><g transform="translate(214.586967, 89.831252)"><g/></g></g><g fill="#ffffff" fill-opacity="1"><g transform="translate(222.060081, 89.831252)"><g><path d="M 8.265625 0 L 8.265625 -6.96875 C 8.265625 -7.738281 8.070312 -8.320312 7.6875 -8.71875 C 7.300781 -9.125 6.753906 -9.328125 6.046875 -9.328125 C 5.140625 -9.328125 4.4375 -9.054688 3.9375 -8.515625 C 3.445312 -7.972656 3.203125 -7.109375 3.203125 -5.921875 L 3.203125 0 L 1.390625 0 L 1.390625 -10.640625 L 3.078125 -10.640625 L 3.078125 -9.15625 C 3.429688 -9.695312 3.890625 -10.117188 4.453125 -10.421875 C 5.023438 -10.734375 5.65625 -10.890625 6.34375 -10.890625 C 7.570312 -10.890625 8.5 -10.570312 9.125 -9.9375 C 9.757812 -9.300781 10.078125 -8.390625 10.078125 -7.203125 L 10.078125 0 Z M 8.265625 0 "/></g></g></g><g fill="#ffffff" fill-opacity="1"><g transform="translate(235.308298, 89.831252)"><g><path d="M 8.546875 -10.640625 L 10.234375 -10.640625 L 10.234375 -0.90625 C 10.234375 0.832031 9.847656 2.132812 9.078125 3 C 8.304688 3.875 7.09375 4.3125 5.4375 4.3125 C 4.132812 4.3125 3.125 4.015625 2.40625 3.421875 C 1.6875 2.828125 1.289062 1.984375 1.21875 0.890625 L 2.953125 1.15625 C 3.046875 1.726562 3.289062 2.148438 3.6875 2.421875 C 4.09375 2.703125 4.664062 2.84375 5.40625 2.84375 C 6.4375 2.84375 7.195312 2.582031 7.6875 2.0625 C 8.175781 1.53125 8.421875 0.457031 8.421875 -1.15625 L 8.421875 -1.390625 C 7.648438 -0.460938 6.632812 0 5.375 0 C 4.457031 0 3.644531 -0.226562 2.9375 -0.6875 C 2.226562 -1.144531 1.679688 -1.78125 1.296875 -2.59375 C 0.910156 -3.414062 0.71875 -4.351562 0.71875 -5.40625 C 0.71875 -6.488281 0.894531 -7.441406 1.25 -8.265625 C 1.601562 -9.097656 2.117188 -9.742188 2.796875 -10.203125 C 3.484375 -10.660156 4.304688 -10.890625 5.265625 -10.890625 C 6.003906 -10.890625 6.628906 -10.757812 7.140625 -10.5 C 7.660156 -10.25 8.113281 -9.875 8.5 -9.375 L 8.546875 -9.375 Z M 5.390625 -9.40625 C 4.835938 -9.40625 4.347656 -9.253906 3.921875 -8.953125 C 3.492188 -8.648438 3.160156 -8.203125 2.921875 -7.609375 C 2.679688 -7.023438 2.5625 -6.328125 2.5625 -5.515625 C 2.5625 -4.671875 2.679688 -3.945312 2.921875 -3.34375 C 3.160156 -2.738281 3.503906 -2.273438 3.953125 -1.953125 C 4.398438 -1.628906 4.929688 -1.46875 5.546875 -1.46875 C 6.171875 -1.46875 6.707031 -1.628906 7.15625 -1.953125 C 7.613281 -2.273438 7.957031 -2.734375 8.1875 -3.328125 C 8.425781 -3.929688 8.546875 -4.644531 8.546875 -5.46875 C 8.546875 -6.269531 8.421875 -6.96875 8.171875 -7.5625 C 7.921875 -8.15625 7.554688 -8.609375 7.078125 -8.921875 C 6.609375 -9.242188 6.046875 -9.40625 5.390625 -9.40625 Z M 5.390625 -9.40625 "/></g></g></g><g fill="#ffffff" fill-opacity="1"><g transform="translate(248.556446, 89.831252)"><g><path d="M 3.203125 -9.328125 C 3.523438 -9.804688 3.972656 -10.1875 4.546875 -10.46875 C 5.117188 -10.75 5.71875 -10.890625 6.34375 -10.890625 C 7.570312 -10.890625 8.5 -10.570312 9.125 -9.9375 C 9.757812 -9.300781 10.078125 -8.390625 10.078125 -7.203125 L 10.078125 0 L 8.265625 0 L 8.265625 -6.96875 C 8.265625 -7.738281 8.070312 -8.320312 7.6875 -8.71875 C 7.300781 -9.125 6.753906 -9.328125 6.046875 -9.328125 C 5.191406 -9.328125 4.503906 -9.066406 3.984375 -8.546875 C 3.460938 -8.023438 3.203125 -7.148438 3.203125 -5.921875 L 3.203125 0 L 1.390625 0 L 1.390625 -14.703125 L 3.203125 -14.703125 Z M 3.203125 -9.328125 "/></g></g></g><g fill="#ffffff" fill-opacity="1"><g transform="translate(261.804662, 89.831252)"><g><path d="M 3.203125 -12.65625 L 1.390625 -12.65625 L 1.390625 -14.703125 L 3.203125 -14.703125 Z M 3.203125 0 L 1.390625 0 L 1.390625 -10.640625 L 3.203125 -10.640625 Z M 3.203125 0 "/></g></g></g></svg>