<svg xmlns="http://www.w3.org/2000/svg" xmlns:xlink="http://www.w3.org/1999/xlink" width="160" zoomAndPan="magnify" viewBox="0 0 300 112.499997" height="60" preserveAspectRatio="xMidYMid meet" version="1.0"><defs><g/></defs><g fill="#ff3131" fill-opacity="1"><g transform="translate(30.238451, 66.707981)"><g><path d="M 33.6875 0 L 29.90625 -9.875 L 13.078125 -9.875 L 9.484375 0 L 0.125 0 L 17.09375 -43.59375 L 25.8125 -43.59375 L 43.296875 0 Z M 19.359375 -27.078125 L 15.765625 -17.25 L 27.078125 -17.25 L 23.421875 -27.078125 C 22.953125 -28.347656 22.53125 -29.644531 22.15625 -30.96875 C 21.789062 -32.300781 21.550781 -33.382812 21.4375 -34.21875 L 21.203125 -34.21875 C 20.835938 -31.84375 20.222656 -29.460938 19.359375 -27.078125 Z M 19.359375 -27.078125 "/></g></g></g><g fill="#0f9fdb" fill-opacity="1"><g transform="translate(68.896279, 66.707981)"><g><path d="M 22.859375 -36.21875 L 22.859375 0 L 14.09375 0 L 14.09375 -36.21875 L 1.484375 -36.21875 L 1.484375 -43.59375 L 35.46875 -43.59375 L 35.46875 -36.21875 Z M 22.859375 -36.21875 "/></g></g></g><g fill="#0f9fdb" fill-opacity="1"><g transform="translate(107.484997, 66.707981)"><g><path d="M 22.859375 -36.21875 L 22.859375 0 L 14.09375 0 L 14.09375 -36.21875 L 1.484375 -36.21875 L 1.484375 -43.59375 L 35.46875 -43.59375 L 35.46875 -36.21875 Z M 22.859375 -36.21875 "/></g></g></g><g fill="#0f9fdb" fill-opacity="1"><g transform="translate(144.438542, 66.707981)"><g><path d="M 13.34375 -36.21875 L 13.34375 -26.25 L 31.671875 -26.25 L 31.671875 -18.875 L 13.34375 -18.875 L 13.34375 -7.375 L 34.34375 -7.375 L 34.34375 0 L 4.578125 0 L 4.578125 -43.59375 L 33.296875 -43.59375 L 33.296875 -36.21875 Z M 13.34375 -36.21875 "/></g></g></g><g fill="#0f9fdb" fill-opacity="1"><g transform="translate(181.689379, 66.707981)"><g><path d="M 22.890625 -36.78125 C 20.492188 -36.78125 18.453125 -36.144531 16.765625 -34.875 C 15.078125 -33.601562 13.804688 -31.851562 12.953125 -29.625 C 12.109375 -27.394531 11.6875 -24.84375 11.6875 -21.96875 C 11.6875 -18.894531 12.117188 -16.21875 12.984375 -13.9375 C 13.859375 -11.664062 15.128906 -9.910156 16.796875 -8.671875 C 18.460938 -7.429688 20.457031 -6.8125 22.78125 -6.8125 C 24.40625 -6.8125 25.910156 -7.164062 27.296875 -7.875 C 28.679688 -8.59375 29.863281 -9.613281 30.84375 -10.9375 C 31.820312 -12.269531 32.539062 -13.835938 33 -15.640625 L 41.71875 -13.59375 C 41.039062 -10.71875 39.863281 -8.203125 38.1875 -6.046875 C 36.507812 -3.898438 34.382812 -2.226562 31.8125 -1.03125 C 29.238281 0.15625 26.304688 0.75 23.015625 0.75 C 18.734375 0.75 15.066406 -0.160156 12.015625 -1.984375 C 8.960938 -3.816406 6.628906 -6.453125 5.015625 -9.890625 C 3.410156 -13.328125 2.609375 -17.414062 2.609375 -22.15625 C 2.609375 -26.6875 3.4375 -30.625 5.09375 -33.96875 C 6.75 -37.3125 9.113281 -39.875 12.1875 -41.65625 C 15.257812 -43.4375 18.867188 -44.328125 23.015625 -44.328125 C 27.765625 -44.328125 31.675781 -43.25 34.75 -41.09375 C 37.820312 -38.945312 39.972656 -35.765625 41.203125 -31.546875 L 32.53125 -29.46875 C 31.082031 -34.34375 27.867188 -36.78125 22.890625 -36.78125 Z M 22.890625 -36.78125 "/></g></g></g><g fill="#0f9fdb" fill-opacity="1"><g transform="translate(225.837418, 66.707981)"><g><path d="M 30.5625 -26.78125 L 30.5625 -43.59375 L 39.328125 -43.59375 L 39.328125 0 L 30.5625 0 L 30.5625 -19.421875 L 13.34375 -19.421875 L 13.34375 0 L 4.578125 0 L 4.578125 -43.59375 L 13.34375 -43.59375 L 13.34375 -26.78125 Z M 30.5625 -26.78125 "/></g></g></g><g fill="#ffffff" fill-opacity="1"><g transform="translate(29.252782, 87.143184)"><g><path d="M 8.578125 -8.796875 C 8.390625 -9.710938 8.054688 -10.367188 7.578125 -10.765625 C 7.097656 -11.160156 6.441406 -11.359375 5.609375 -11.359375 C 5.066406 -11.359375 4.585938 -11.273438 4.171875 -11.109375 C 3.753906 -10.953125 3.425781 -10.722656 3.1875 -10.421875 C 2.957031 -10.128906 2.84375 -9.789062 2.84375 -9.40625 C 2.84375 -9.007812 2.945312 -8.691406 3.15625 -8.453125 C 3.375 -8.210938 3.703125 -8.007812 4.140625 -7.84375 C 4.578125 -7.6875 5.203125 -7.519531 6.015625 -7.34375 C 7.140625 -7.09375 8.03125 -6.804688 8.6875 -6.484375 C 9.351562 -6.171875 9.832031 -5.773438 10.125 -5.296875 C 10.425781 -4.828125 10.578125 -4.242188 10.578125 -3.546875 C 10.578125 -2.835938 10.378906 -2.195312 9.984375 -1.625 C 9.597656 -1.050781 9.054688 -0.597656 8.359375 -0.265625 C 7.671875 0.0546875 6.894531 0.21875 6.03125 0.21875 C 4.53125 0.21875 3.328125 -0.128906 2.421875 -0.828125 C 1.523438 -1.535156 0.976562 -2.566406 0.78125 -3.921875 L 2.421875 -4.296875 C 2.535156 -3.273438 2.890625 -2.503906 3.484375 -1.984375 C 4.085938 -1.460938 4.914062 -1.203125 5.96875 -1.203125 C 6.507812 -1.203125 7.007812 -1.289062 7.46875 -1.46875 C 7.9375 -1.644531 8.304688 -1.890625 8.578125 -2.203125 C 8.847656 -2.523438 8.984375 -2.882812 8.984375 -3.28125 C 8.984375 -3.800781 8.851562 -4.207031 8.59375 -4.5 C 8.34375 -4.800781 7.960938 -5.039062 7.453125 -5.21875 C 7.023438 -5.363281 6.410156 -5.53125 5.609375 -5.71875 C 5.128906 -5.832031 4.789062 -5.914062 4.59375 -5.96875 C 3.726562 -6.207031 3.050781 -6.488281 2.5625 -6.8125 C 2.070312 -7.144531 1.726562 -7.519531 1.53125 -7.9375 C 1.34375 -8.363281 1.25 -8.863281 1.25 -9.4375 C 1.25 -10.070312 1.4375 -10.640625 1.8125 -11.140625 C 2.1875 -11.648438 2.703125 -12.050781 3.359375 -12.34375 C 4.023438 -12.632812 4.765625 -12.78125 5.578125 -12.78125 C 6.441406 -12.78125 7.203125 -12.632812 7.859375 -12.34375 C 8.523438 -12.0625 9.054688 -11.648438 9.453125 -11.109375 C 9.859375 -10.566406 10.113281 -9.914062 10.21875 -9.15625 L 8.609375 -8.796875 Z M 8.578125 -8.796875 "/></g></g></g><g fill="#ffffff" fill-opacity="1"><g transform="translate(43.9727, 87.143184)"><g><path d="M 8.515625 0 L 6.890625 0 C 6.804688 -0.195312 6.742188 -0.351562 6.703125 -0.46875 C 6.671875 -0.59375 6.628906 -0.8125 6.578125 -1.125 C 6.140625 -0.65625 5.675781 -0.3125 5.1875 -0.09375 C 4.695312 0.113281 4.132812 0.21875 3.5 0.21875 C 2.925781 0.21875 2.421875 0.109375 1.984375 -0.109375 C 1.546875 -0.335938 1.207031 -0.648438 0.96875 -1.046875 C 0.726562 -1.441406 0.609375 -1.894531 0.609375 -2.40625 C 0.609375 -3.1875 0.863281 -3.804688 1.375 -4.265625 C 1.882812 -4.734375 2.722656 -5.054688 3.890625 -5.234375 C 5.097656 -5.421875 5.960938 -5.59375 6.484375 -5.75 L 6.484375 -6 C 6.484375 -6.507812 6.414062 -6.910156 6.28125 -7.203125 C 6.144531 -7.492188 5.929688 -7.703125 5.640625 -7.828125 C 5.359375 -7.960938 4.972656 -8.03125 4.484375 -8.03125 C 3.867188 -8.03125 3.378906 -7.890625 3.015625 -7.609375 C 2.660156 -7.335938 2.425781 -6.898438 2.3125 -6.296875 L 0.8125 -6.53125 C 0.988281 -7.445312 1.394531 -8.132812 2.03125 -8.59375 C 2.664062 -9.0625 3.507812 -9.296875 4.5625 -9.296875 C 5.375 -9.296875 6.03125 -9.191406 6.53125 -8.984375 C 7.03125 -8.785156 7.398438 -8.457031 7.640625 -8 C 7.890625 -7.539062 8.015625 -6.921875 8.015625 -6.140625 L 8.015625 -2.875 C 8.015625 -2.3125 8.023438 -1.875 8.046875 -1.5625 C 8.078125 -1.257812 8.125 -0.992188 8.1875 -0.765625 C 8.257812 -0.546875 8.367188 -0.289062 8.515625 0 Z M 3.953125 -3.9375 C 3.347656 -3.832031 2.898438 -3.65625 2.609375 -3.40625 C 2.328125 -3.15625 2.1875 -2.820312 2.1875 -2.40625 C 2.1875 -1.96875 2.328125 -1.625 2.609375 -1.375 C 2.898438 -1.125 3.3125 -1 3.84375 -1 C 4.28125 -1 4.742188 -1.144531 5.234375 -1.4375 C 5.566406 -1.632812 5.820312 -1.847656 6 -2.078125 C 6.175781 -2.304688 6.300781 -2.585938 6.375 -2.921875 C 6.445312 -3.253906 6.484375 -3.6875 6.484375 -4.21875 L 6.484375 -4.546875 C 6.335938 -4.484375 6.023438 -4.394531 5.546875 -4.28125 C 5.066406 -4.164062 4.535156 -4.050781 3.953125 -3.9375 Z M 4.578125 -10.359375 L 3.296875 -10.359375 L 4.4375 -12.78125 L 6.46875 -12.78125 Z M 4.578125 -10.359375 "/></g></g></g><g fill="#ffffff" fill-opacity="1"><g transform="translate(56.37929, 87.143184)"><g><path d="M 7.0625 0 L 7.0625 -5.953125 C 7.0625 -6.609375 6.894531 -7.109375 6.5625 -7.453125 C 6.226562 -7.796875 5.757812 -7.96875 5.15625 -7.96875 C 4.394531 -7.96875 3.800781 -7.734375 3.375 -7.265625 C 2.945312 -6.804688 2.734375 -6.070312 2.734375 -5.0625 L 2.734375 0 L 1.1875 0 L 1.1875 -9.09375 L 2.625 -9.09375 L 2.625 -7.828125 C 2.925781 -8.285156 3.316406 -8.644531 3.796875 -8.90625 C 4.285156 -9.164062 4.828125 -9.296875 5.421875 -9.296875 C 6.460938 -9.296875 7.253906 -9.023438 7.796875 -8.484375 C 8.335938 -7.941406 8.609375 -7.164062 8.609375 -6.15625 L 8.609375 0 Z M 7.0625 0 "/></g></g></g><g fill="#ffffff" fill-opacity="1"><g transform="translate(69.368497, 87.143184)"><g><path d="M 7.296875 -9.09375 L 8.734375 -9.09375 L 8.734375 -0.765625 C 8.734375 0.710938 8.40625 1.820312 7.75 2.5625 C 7.09375 3.3125 6.054688 3.6875 4.640625 3.6875 C 3.523438 3.6875 2.660156 3.429688 2.046875 2.921875 C 1.429688 2.421875 1.09375 1.695312 1.03125 0.75 L 2.53125 0.984375 C 2.601562 1.472656 2.8125 1.832031 3.15625 2.0625 C 3.5 2.300781 3.988281 2.421875 4.625 2.421875 C 5.5 2.421875 6.144531 2.195312 6.5625 1.75 C 6.988281 1.300781 7.203125 0.382812 7.203125 -1 L 7.203125 -1.1875 C 6.535156 -0.394531 5.664062 0 4.59375 0 C 3.800781 0 3.101562 -0.191406 2.5 -0.578125 C 1.90625 -0.972656 1.441406 -1.519531 1.109375 -2.21875 C 0.773438 -2.914062 0.609375 -3.71875 0.609375 -4.625 C 0.609375 -5.539062 0.757812 -6.351562 1.0625 -7.0625 C 1.375 -7.769531 1.816406 -8.316406 2.390625 -8.703125 C 2.972656 -9.097656 3.675781 -9.296875 4.5 -9.296875 C 5.125 -9.296875 5.65625 -9.1875 6.09375 -8.96875 C 6.539062 -8.75 6.929688 -8.425781 7.265625 -8 L 7.296875 -8 Z M 4.609375 -8.03125 C 4.128906 -8.03125 3.707031 -7.898438 3.34375 -7.640625 C 2.976562 -7.378906 2.691406 -7 2.484375 -6.5 C 2.285156 -6 2.1875 -5.398438 2.1875 -4.703125 C 2.1875 -3.984375 2.285156 -3.363281 2.484375 -2.84375 C 2.691406 -2.332031 2.988281 -1.941406 3.375 -1.671875 C 3.757812 -1.398438 4.210938 -1.265625 4.734375 -1.265625 C 5.273438 -1.265625 5.738281 -1.398438 6.125 -1.671875 C 6.507812 -1.941406 6.800781 -2.332031 7 -2.84375 C 7.195312 -3.351562 7.296875 -3.960938 7.296875 -4.671875 C 7.296875 -5.359375 7.1875 -5.953125 6.96875 -6.453125 C 6.757812 -6.960938 6.453125 -7.351562 6.046875 -7.625 C 5.640625 -7.894531 5.160156 -8.03125 4.609375 -8.03125 Z M 4.609375 -8.03125 "/></g></g></g><g fill="#ffffff" fill-opacity="1"><g transform="translate(82.52906, 87.143184)"><g/></g></g><g fill="#ffffff" fill-opacity="1"><g transform="translate(90.583172, 87.143184)"><g><path d="M 2.96875 -9.09375 L 4.6875 -9.09375 L 4.6875 -7.90625 L 2.96875 -7.90625 L 2.96875 -2.390625 C 2.96875 -2.054688 2.992188 -1.804688 3.046875 -1.640625 C 3.109375 -1.472656 3.195312 -1.359375 3.3125 -1.296875 C 3.4375 -1.242188 3.609375 -1.21875 3.828125 -1.21875 C 4.023438 -1.21875 4.3125 -1.257812 4.6875 -1.34375 L 4.890625 -0.046875 C 4.453125 0.0546875 4.007812 0.109375 3.5625 0.109375 C 3.007812 0.109375 2.582031 0.0234375 2.28125 -0.140625 C 1.976562 -0.304688 1.757812 -0.546875 1.625 -0.859375 C 1.488281 -1.171875 1.421875 -1.726562 1.421875 -2.53125 L 1.421875 -7.90625 L 0.125 -7.90625 L 0.125 -9.09375 L 1.421875 -9.09375 L 1.421875 -11.1875 L 2.96875 -12.28125 Z M 2.96875 -9.09375 "/></g></g></g><g fill="#ffffff" fill-opacity="1"><g transform="translate(98.920024, 87.143184)"><g><path d="M 8.515625 0 L 6.890625 0 C 6.804688 -0.195312 6.742188 -0.351562 6.703125 -0.46875 C 6.671875 -0.59375 6.628906 -0.8125 6.578125 -1.125 C 6.140625 -0.65625 5.675781 -0.3125 5.1875 -0.09375 C 4.695312 0.113281 4.132812 0.21875 3.5 0.21875 C 2.925781 0.21875 2.421875 0.109375 1.984375 -0.109375 C 1.546875 -0.335938 1.207031 -0.648438 0.96875 -1.046875 C 0.726562 -1.441406 0.609375 -1.894531 0.609375 -2.40625 C 0.609375 -3.1875 0.863281 -3.804688 1.375 -4.265625 C 1.882812 -4.734375 2.722656 -5.054688 3.890625 -5.234375 C 5.097656 -5.421875 5.960938 -5.59375 6.484375 -5.75 L 6.484375 -6 C 6.484375 -6.507812 6.414062 -6.910156 6.28125 -7.203125 C 6.144531 -7.492188 5.929688 -7.703125 5.640625 -7.828125 C 5.359375 -7.960938 4.972656 -8.03125 4.484375 -8.03125 C 3.867188 -8.03125 3.378906 -7.890625 3.015625 -7.609375 C 2.660156 -7.335938 2.425781 -6.898438 2.3125 -6.296875 L 0.8125 -6.53125 C 0.988281 -7.445312 1.394531 -8.132812 2.03125 -8.59375 C 2.664062 -9.0625 3.507812 -9.296875 4.5625 -9.296875 C 5.375 -9.296875 6.03125 -9.191406 6.53125 -8.984375 C 7.03125 -8.785156 7.398438 -8.457031 7.640625 -8 C 7.890625 -7.539062 8.015625 -6.921875 8.015625 -6.140625 L 8.015625 -2.875 C 8.015625 -2.3125 8.023438 -1.875 8.046875 -1.5625 C 8.078125 -1.257812 8.125 -0.992188 8.1875 -0.765625 C 8.257812 -0.546875 8.367188 -0.289062 8.515625 0 Z M 3.953125 -3.9375 C 3.347656 -3.832031 2.898438 -3.65625 2.609375 -3.40625 C 2.328125 -3.15625 2.1875 -2.820312 2.1875 -2.40625 C 2.1875 -1.96875 2.328125 -1.625 2.609375 -1.375 C 2.898438 -1.125 3.3125 -1 3.84375 -1 C 4.28125 -1 4.742188 -1.144531 5.234375 -1.4375 C 5.566406 -1.632812 5.820312 -1.847656 6 -2.078125 C 6.175781 -2.304688 6.300781 -2.585938 6.375 -2.921875 C 6.445312 -3.253906 6.484375 -3.6875 6.484375 -4.21875 L 6.484375 -4.546875 C 6.335938 -4.484375 6.023438 -4.394531 5.546875 -4.28125 C 5.066406 -4.164062 4.535156 -4.050781 3.953125 -3.9375 Z M 5.4375 3.265625 L 3.75 3.265625 L 3.75 1.375 L 5.4375 1.375 Z M 5.4375 3.265625 "/></g></g></g><g fill="#ffffff" fill-opacity="1"><g transform="translate(111.326618, 87.143184)"><g><path d="M 0.609375 -4.546875 C 0.609375 -5.523438 0.785156 -6.375 1.140625 -7.09375 C 1.492188 -7.8125 1.992188 -8.359375 2.640625 -8.734375 C 3.285156 -9.109375 4.03125 -9.296875 4.875 -9.296875 C 5.726562 -9.296875 6.472656 -9.113281 7.109375 -8.75 C 7.753906 -8.382812 8.253906 -7.84375 8.609375 -7.125 C 8.960938 -6.414062 9.140625 -5.5625 9.140625 -4.5625 C 9.140625 -3.5625 8.957031 -2.703125 8.59375 -1.984375 C 8.238281 -1.265625 7.738281 -0.71875 7.09375 -0.34375 C 6.457031 0.03125 5.71875 0.21875 4.875 0.21875 C 4.039062 0.21875 3.300781 0.0351562 2.65625 -0.328125 C 2.019531 -0.691406 1.519531 -1.226562 1.15625 -1.9375 C 0.789062 -2.65625 0.609375 -3.523438 0.609375 -4.546875 Z M 4.859375 -8.03125 C 4.347656 -8.03125 3.890625 -7.894531 3.484375 -7.625 C 3.085938 -7.363281 2.769531 -6.96875 2.53125 -6.4375 C 2.300781 -5.914062 2.1875 -5.285156 2.1875 -4.546875 C 2.1875 -3.796875 2.300781 -3.15625 2.53125 -2.625 C 2.757812 -2.101562 3.078125 -1.707031 3.484375 -1.4375 C 3.890625 -1.175781 4.351562 -1.046875 4.875 -1.046875 C 5.414062 -1.046875 5.890625 -1.179688 6.296875 -1.453125 C 6.703125 -1.734375 7.015625 -2.132812 7.234375 -2.65625 C 7.453125 -3.1875 7.5625 -3.820312 7.5625 -4.5625 C 7.5625 -5.300781 7.445312 -5.929688 7.21875 -6.453125 C 6.988281 -6.972656 6.671875 -7.363281 6.265625 -7.625 C 5.859375 -7.894531 5.390625 -8.03125 4.859375 -8.03125 Z M 4.859375 -8.03125 "/></g></g></g><g fill="#ffffff" fill-opacity="1"><g transform="translate(124.315827, 87.143184)"><g/></g></g><g fill="#ffffff" fill-opacity="1"><g transform="translate(132.369939, 87.143184)"><g><path d="M 9.359375 -5.90625 L 10.953125 -5.5625 C 10.671875 -4.507812 10.257812 -3.585938 9.71875 -2.796875 C 10 -2.472656 10.332031 -2.132812 10.71875 -1.78125 C 11.113281 -1.4375 11.457031 -1.164062 11.75 -0.96875 L 10.765625 0.296875 C 10.453125 0.109375 10.132812 -0.125 9.8125 -0.40625 C 9.488281 -0.6875 9.125 -1.046875 8.71875 -1.484375 C 8.175781 -0.921875 7.597656 -0.492188 6.984375 -0.203125 C 6.367188 0.078125 5.679688 0.21875 4.921875 0.21875 C 4.109375 0.21875 3.382812 0.0507812 2.75 -0.28125 C 2.113281 -0.613281 1.617188 -1.0625 1.265625 -1.625 C 0.921875 -2.1875 0.75 -2.796875 0.75 -3.453125 C 0.75 -4.242188 1.007812 -4.945312 1.53125 -5.5625 C 2.0625 -6.1875 2.84375 -6.738281 3.875 -7.21875 C 3.34375 -7.800781 2.960938 -8.296875 2.734375 -8.703125 C 2.515625 -9.117188 2.40625 -9.539062 2.40625 -9.96875 C 2.40625 -10.507812 2.539062 -10.992188 2.8125 -11.421875 C 3.09375 -11.847656 3.484375 -12.179688 3.984375 -12.421875 C 4.484375 -12.660156 5.050781 -12.78125 5.6875 -12.78125 C 6.257812 -12.78125 6.78125 -12.660156 7.25 -12.421875 C 7.71875 -12.191406 8.082031 -11.867188 8.34375 -11.453125 C 8.613281 -11.046875 8.75 -10.59375 8.75 -10.09375 C 8.75 -9.488281 8.535156 -8.921875 8.109375 -8.390625 C 7.691406 -7.859375 7.050781 -7.382812 6.1875 -6.96875 L 8.65625 -4.0625 C 8.789062 -4.34375 8.925781 -4.660156 9.0625 -5.015625 C 9.207031 -5.378906 9.304688 -5.675781 9.359375 -5.90625 Z M 7.1875 -10.0625 C 7.1875 -10.332031 7.113281 -10.578125 6.96875 -10.796875 C 6.832031 -11.015625 6.640625 -11.1875 6.390625 -11.3125 C 6.148438 -11.4375 5.878906 -11.5 5.578125 -11.5 C 5.273438 -11.5 5 -11.441406 4.75 -11.328125 C 4.507812 -11.222656 4.320312 -11.070312 4.1875 -10.875 C 4.050781 -10.675781 3.984375 -10.441406 3.984375 -10.171875 C 3.984375 -9.765625 4.1875 -9.328125 4.59375 -8.859375 L 5.359375 -7.96875 C 5.847656 -8.238281 6.222656 -8.484375 6.484375 -8.703125 C 6.753906 -8.921875 6.9375 -9.132812 7.03125 -9.34375 C 7.132812 -9.5625 7.1875 -9.800781 7.1875 -10.0625 Z M 2.421875 -3.453125 C 2.421875 -3.023438 2.53125 -2.632812 2.75 -2.28125 C 2.976562 -1.9375 3.285156 -1.660156 3.671875 -1.453125 C 4.066406 -1.253906 4.492188 -1.15625 4.953125 -1.15625 C 5.429688 -1.15625 5.925781 -1.289062 6.4375 -1.5625 C 6.945312 -1.832031 7.378906 -2.191406 7.734375 -2.640625 L 4.734375 -6.1875 C 4.148438 -5.851562 3.691406 -5.539062 3.359375 -5.25 C 3.023438 -4.957031 2.785156 -4.664062 2.640625 -4.375 C 2.492188 -4.09375 2.421875 -3.785156 2.421875 -3.453125 Z M 2.421875 -3.453125 "/></g></g></g><g fill="#ffffff" fill-opacity="1"><g transform="translate(147.638203, 87.143184)"><g/></g></g><g fill="#ffffff" fill-opacity="1"><g transform="translate(155.692315, 87.143184)"><g><path d="M 10.015625 -11.0625 L 6.015625 -11.0625 L 6.015625 0 L 4.359375 0 L 4.359375 -11.0625 L 0.34375 -11.0625 L 0.34375 -12.5625 L 10.015625 -12.5625 Z M 10.015625 -11.0625 "/></g></g></g><g fill="#ffffff" fill-opacity="1"><g transform="translate(169.289844, 87.143184)"><g><path d="M 2.734375 -7.96875 C 3.015625 -8.375 3.398438 -8.695312 3.890625 -8.9375 C 4.378906 -9.175781 4.890625 -9.296875 5.421875 -9.296875 C 6.460938 -9.296875 7.253906 -9.023438 7.796875 -8.484375 C 8.335938 -7.941406 8.609375 -7.164062 8.609375 -6.15625 L 8.609375 0 L 7.0625 0 L 7.0625 -5.953125 C 7.0625 -6.609375 6.894531 -7.109375 6.5625 -7.453125 C 6.226562 -7.796875 5.757812 -7.96875 5.15625 -7.96875 C 4.425781 -7.96875 3.835938 -7.742188 3.390625 -7.296875 C 2.953125 -6.847656 2.734375 -6.101562 2.734375 -5.0625 L 2.734375 0 L 1.1875 0 L 1.1875 -12.5625 L 2.734375 -12.5625 Z M 2.734375 -7.96875 "/></g></g></g><g fill="#ffffff" fill-opacity="1"><g transform="translate(182.279053, 87.143184)"><g><path d="M 2.734375 0 L 1.1875 0 L 1.1875 -9.09375 L 2.734375 -9.09375 Z M 2.046875 -10.359375 L 0.765625 -10.359375 L 1.90625 -12.78125 L 3.9375 -12.78125 Z M 2.046875 -10.359375 "/></g></g></g><g fill="#ffffff" fill-opacity="1"><g transform="translate(189.433538, 87.143184)"><g><path d="M 5 -8.03125 C 4.101562 -8.03125 3.410156 -7.726562 2.921875 -7.125 C 2.429688 -6.519531 2.1875 -5.664062 2.1875 -4.5625 C 2.1875 -3.875 2.296875 -3.265625 2.515625 -2.734375 C 2.734375 -2.203125 3.046875 -1.785156 3.453125 -1.484375 C 3.867188 -1.191406 4.351562 -1.046875 4.90625 -1.046875 C 5.5625 -1.046875 6.097656 -1.25 6.515625 -1.65625 C 6.941406 -2.0625 7.207031 -2.617188 7.3125 -3.328125 L 8.84375 -3.09375 C 8.75 -2.425781 8.515625 -1.84375 8.140625 -1.34375 C 7.765625 -0.84375 7.289062 -0.457031 6.71875 -0.1875 C 6.15625 0.0820312 5.53125 0.21875 4.84375 0.21875 C 4.007812 0.21875 3.269531 0.0234375 2.625 -0.359375 C 1.988281 -0.742188 1.492188 -1.289062 1.140625 -2 C 0.785156 -2.71875 0.609375 -3.5625 0.609375 -4.53125 C 0.609375 -5.550781 0.785156 -6.414062 1.140625 -7.125 C 1.492188 -7.84375 1.992188 -8.382812 2.640625 -8.75 C 3.285156 -9.113281 4.046875 -9.296875 4.921875 -9.296875 C 5.566406 -9.296875 6.15625 -9.179688 6.6875 -8.953125 C 7.21875 -8.734375 7.65625 -8.40625 8 -7.96875 C 8.351562 -7.539062 8.582031 -7.023438 8.6875 -6.421875 L 7.203125 -6.203125 C 7.054688 -6.773438 6.785156 -7.222656 6.390625 -7.546875 C 6.003906 -7.867188 5.539062 -8.03125 5 -8.03125 Z M 5 -8.03125 "/></g></g></g><g fill="#ffffff" fill-opacity="1"><g transform="translate(201.857267, 87.143184)"><g><path d="M 2.734375 -7.96875 C 3.015625 -8.375 3.398438 -8.695312 3.890625 -8.9375 C 4.378906 -9.175781 4.890625 -9.296875 5.421875 -9.296875 C 6.460938 -9.296875 7.253906 -9.023438 7.796875 -8.484375 C 8.335938 -7.941406 8.609375 -7.164062 8.609375 -6.15625 L 8.609375 0 L 7.0625 0 L 7.0625 -5.953125 C 7.0625 -6.609375 6.894531 -7.109375 6.5625 -7.453125 C 6.226562 -7.796875 5.757812 -7.96875 5.15625 -7.96875 C 4.425781 -7.96875 3.835938 -7.742188 3.390625 -7.296875 C 2.953125 -6.847656 2.734375 -6.101562 2.734375 -5.0625 L 2.734375 0 L 1.1875 0 L 1.1875 -12.5625 L 2.734375 -12.5625 Z M 2.734375 -7.96875 "/></g></g></g><g fill="#ffffff" fill-opacity="1"><g transform="translate(214.846476, 87.143184)"><g/></g></g><g fill="#ffffff" fill-opacity="1"><g transform="translate(222.900588, 87.143184)"><g><path d="M 7.0625 0 L 7.0625 -5.953125 C 7.0625 -6.609375 6.894531 -7.109375 6.5625 -7.453125 C 6.226562 -7.796875 5.757812 -7.96875 5.15625 -7.96875 C 4.394531 -7.96875 3.800781 -7.734375 3.375 -7.265625 C 2.945312 -6.804688 2.734375 -6.070312 2.734375 -5.0625 L 2.734375 0 L 1.1875 0 L 1.1875 -9.09375 L 2.625 -9.09375 L 2.625 -7.828125 C 2.925781 -8.285156 3.316406 -8.644531 3.796875 -8.90625 C 4.285156 -9.164062 4.828125 -9.296875 5.421875 -9.296875 C 6.460938 -9.296875 7.253906 -9.023438 7.796875 -8.484375 C 8.335938 -7.941406 8.609375 -7.164062 8.609375 -6.15625 L 8.609375 0 Z M 7.0625 0 "/></g></g></g><g fill="#ffffff" fill-opacity="1"><g transform="translate(235.889786, 87.143184)"><g><path d="M 7.296875 -9.09375 L 8.734375 -9.09375 L 8.734375 -0.765625 C 8.734375 0.710938 8.40625 1.820312 7.75 2.5625 C 7.09375 3.3125 6.054688 3.6875 4.640625 3.6875 C 3.523438 3.6875 2.660156 3.429688 2.046875 2.921875 C 1.429688 2.421875 1.09375 1.695312 1.03125 0.75 L 2.53125 0.984375 C 2.601562 1.472656 2.8125 1.832031 3.15625 2.0625 C 3.5 2.300781 3.988281 2.421875 4.625 2.421875 C 5.5 2.421875 6.144531 2.195312 6.5625 1.75 C 6.988281 1.300781 7.203125 0.382812 7.203125 -1 L 7.203125 -1.1875 C 6.535156 -0.394531 5.664062 0 4.59375 0 C 3.800781 0 3.101562 -0.191406 2.5 -0.578125 C 1.90625 -0.972656 1.441406 -1.519531 1.109375 -2.21875 C 0.773438 -2.914062 0.609375 -3.71875 0.609375 -4.625 C 0.609375 -5.539062 0.757812 -6.351562 1.0625 -7.0625 C 1.375 -7.769531 1.816406 -8.316406 2.390625 -8.703125 C 2.972656 -9.097656 3.675781 -9.296875 4.5 -9.296875 C 5.125 -9.296875 5.65625 -9.1875 6.09375 -8.96875 C 6.539062 -8.75 6.929688 -8.425781 7.265625 -8 L 7.296875 -8 Z M 4.609375 -8.03125 C 4.128906 -8.03125 3.707031 -7.898438 3.34375 -7.640625 C 2.976562 -7.378906 2.691406 -7 2.484375 -6.5 C 2.285156 -6 2.1875 -5.398438 2.1875 -4.703125 C 2.1875 -3.984375 2.285156 -3.363281 2.484375 -2.84375 C 2.691406 -2.332031 2.988281 -1.941406 3.375 -1.671875 C 3.757812 -1.398438 4.210938 -1.265625 4.734375 -1.265625 C 5.273438 -1.265625 5.738281 -1.398438 6.125 -1.671875 C 6.507812 -1.941406 6.800781 -2.332031 7 -2.84375 C 7.195312 -3.351562 7.296875 -3.960938 7.296875 -4.671875 C 7.296875 -5.359375 7.1875 -5.953125 6.96875 -6.453125 C 6.757812 -6.960938 6.453125 -7.351562 6.046875 -7.625 C 5.640625 -7.894531 5.160156 -8.03125 4.609375 -8.03125 Z M 4.609375 -8.03125 "/></g></g></g><g fill="#ffffff" fill-opacity="1"><g transform="translate(248.878916, 87.143184)"><g><path d="M 2.734375 -7.96875 C 3.015625 -8.375 3.398438 -8.695312 3.890625 -8.9375 C 4.378906 -9.175781 4.890625 -9.296875 5.421875 -9.296875 C 6.460938 -9.296875 7.253906 -9.023438 7.796875 -8.484375 C 8.335938 -7.941406 8.609375 -7.164062 8.609375 -6.15625 L 8.609375 0 L 7.0625 0 L 7.0625 -5.953125 C 7.0625 -6.609375 6.894531 -7.109375 6.5625 -7.453125 C 6.226562 -7.796875 5.757812 -7.96875 5.15625 -7.96875 C 4.425781 -7.96875 3.835938 -7.742188 3.390625 -7.296875 C 2.953125 -6.847656 2.734375 -6.101562 2.734375 -5.0625 L 2.734375 0 L 1.1875 0 L 1.1875 -12.5625 L 2.734375 -12.5625 Z M 2.734375 -7.96875 "/></g></g></g><g fill="#ffffff" fill-opacity="1"><g transform="translate(261.868114, 87.143184)"><g><path d="M 2.734375 -10.8125 L 1.1875 -10.8125 L 1.1875 -12.5625 L 2.734375 -12.5625 Z M 2.734375 0 L 1.1875 0 L 1.1875 -9.09375 L 2.734375 -9.09375 Z M 2.734375 0 "/></g></g></g></svg>